<svg id="SvgjsSvg1046" width="5000" height="2640" xmlns="http://www.w3.org/2000/svg" version="1.1" xmlns:xlink="http://www.w3.org/1999/xlink" xmlns:svgjs="http://svgjs.com/svgjs" viewBox="0 0 430.390625 227.265625"><defs id="SvgjsDefs1047"></defs><g id="SvgjsG1049"><svg xmlns="http://www.w3.org/2000/svg" viewBox="4 1.9983844757080078 56 57.941612243652344" x="152.6875" y="0" width="125" height="129.328125" version="1.1" xmlns:xlink="http://www.w3.org/1999/xlink" xmlns:svgjs="http://svgjs.com/svgjs" preserveAspectRatio="none" fill="#000000" stroke="none"><title>Middle of the Earth in Ecuador</title><g data-name="Layer 2"><path d="M58.16,56H49.1a1.84,1.84,0,0,1-1.82-1.56L42.13,20.85a1,1,0,0,0-1-.85H41a1,1,0,0,1-1-1,1,1,0,0,0-1-1,1,1,0,0,1,0-2,1,1,0,0,0,1-1v-.37a1,1,0,0,0-1-1H34.07a6,6,0,1,0-4.14,0H25a1,1,0,0,0-1,1V15a1,1,0,0,0,1,1,1,1,0,0,1,0,2,1,1,0,0,0-1,1,1,1,0,0,1-1,1h-.14a1,1,0,0,0-1,.85l-5,33.58A1.84,1.84,0,0,1,15,56H5.84A1.84,1.84,0,0,0,4,57.84v.26a1.84,1.84,0,0,0,1.84,1.84H58.16A1.84,1.84,0,0,0,60,58.1v-.26A1.84,1.84,0,0,0,58.16,56ZM29.29,5.06A4,4,0,0,1,32,4a1,1,0,0,1,0,2,2,2,0,0,0-1.36.53,1,1,0,0,1-1.36-1.47Zm-.29,4h-.08a1,1,0,0,1-.92-1S28,8,28,8A1,1,0,0,1,29.08,7,1,1,0,0,1,30,8s0,.06,0,.08v.06A1,1,0,0,1,29,9.06Zm7,34.19a.75.75,0,0,1-.75.75h-6.5a.75.75,0,0,1-.75-.75V30.75a.75.75,0,0,1,.75-.75h6.5a.75.75,0,0,1,.75.75Z"></path><path d="M5.14,54h5.72a1,1,0,0,0,1-1.08L10.45,41.83h-1l-.11-.91H6.64l-.11.91h-1L4.18,52.92A1,1,0,0,0,5.14,54Z"></path><path d="M57.45,41.83l-.11-.91h-2.7l-.11.91h-1L52.18,52.92a1,1,0,0,0,1,1.08h5.72a1,1,0,0,0,1-1.08L58.45,41.83Z"></path></g><defs id="SvgjsDefs1048"></defs></svg></g><g id="SvgjsG1051"><svg xmlns="http://www.w3.org/2000/svg" xmlns:xlink="http://www.w3.org/1999/xlink" width="430.390625" viewBox="1.25 12.220000267028809 431.54998779296875 48.93000030517578" overflow="visible" style="overflow: visible;" version="1.1" xmlns:svgjs="http://svgjs.com/svgjs" preserveAspectRatio="none" height="48.796875" x="0" y="146.328125" fill="#000000" stroke="none"><path stroke="none" fill="#000000" d="M17.99 29.90L17.99 29.90L19.29 30.11L19.29 30.11Q21.79 30.11 26.70 27.90L26.70 27.90L26.70 27.90Q31.62 25.69 35.72 22.41L35.72 22.41L35.72 22.41Q39.83 19.14 39.83 16.64L39.83 16.64L39.83 16.64Q39.83 15.03 38.25 14.40L38.25 14.40L38.25 14.40Q36.66 13.78 34.79 13.78L34.79 13.78L34.79 13.78Q28.70 13.78 21.68 17.26L21.68 17.26L21.68 17.26Q14.66 20.75 9.57 25.48L9.57 25.48L9.57 25.48Q2.70 31.88 2.70 37.65L2.70 37.65L2.70 37.65Q2.70 40.14 3.95 42.02L3.95 42.02L3.95 42.02Q5.20 43.89 7.28 44.93L7.28 44.93L7.28 44.93Q11.18 46.85 16.02 46.85L16.02 46.85L16.02 46.85Q18.20 46.85 21.37 46.38L21.37 46.38L21.37 46.38Q26.88 45.40 30.81 43.78L30.81 43.78L30.81 43.78Q34.74 42.17 38.69 38.95L38.69 38.95L38.69 38.95Q38.90 38.84 38.95 38.84L38.95 38.84L38.95 38.84Q39.21 38.84 39.21 39.08L39.21 39.08L39.21 39.08Q39.21 39.31 39 39.62L39 39.62L39 39.62Q35.10 43.84 28.13 46.51L28.13 46.51L28.13 46.51Q21.16 49.19 15.08 49.19L15.08 49.19L15.08 49.19Q7.28 49.19 3.38 44.62L3.38 44.62L3.38 44.62Q1.25 42.07 1.25 38.48L1.25 38.48L1.25 38.48Q1.25 31.51 8.79 24.70L8.79 24.70L8.79 24.70Q14.46 19.60 22.41 15.91L22.41 15.91L22.41 15.91Q30.37 12.22 37.23 12.22L37.23 12.22L37.23 12.22Q41.44 12.22 43.78 14.25L43.78 14.25L43.78 14.25Q45.14 15.50 45.14 17.32L45.14 17.32L45.14 17.32Q45.14 19.86 42.56 22.44L42.56 22.44L42.56 22.44Q39.99 25.01 36.37 26.83L36.37 26.83L36.37 26.83Q32.76 28.65 29.15 29.87L29.15 29.87L29.15 29.87Q25.53 31.10 24.10 31.23L24.10 31.23L24.10 31.23Q22.67 31.36 21.92 31.36L21.92 31.36L21.92 31.36Q21.16 31.36 20.38 31.30L20.38 31.30L20.38 31.30Q17.68 31.04 17.68 30.16L17.68 30.16L17.68 30.16Q17.68 29.90 17.99 29.90ZM46.54 45.92L46.54 45.92L46.54 45.92Q43.06 47.68 40.46 47.68L40.46 47.68L40.46 47.68Q38.27 47.68 37.49 46.23L37.49 46.23L37.49 46.23Q37.08 45.50 37.08 44.56L37.08 44.56L37.08 44.56Q37.08 42.43 38.06 40.40L38.06 40.40L38.06 40.40Q37.39 41.08 36.76 41.50L36.76 41.50L36.76 41.50Q36.24 41.96 36.24 41.39L36.24 41.39L36.24 41.39Q36.24 41.03 37.15 40.25L37.15 40.25L37.15 40.25Q38.06 39.47 39.94 37.62L39.94 37.62L39.94 37.62Q41.81 35.78 42.90 34.84L42.90 34.84L42.90 34.84Q46.07 32.19 49.61 32.19L49.61 32.19L49.61 32.19Q50.91 32.19 52.26 32.86L52.26 32.86L52.26 32.86Q54.24 33.80 54.24 36.30L54.24 36.30L54.24 36.30Q54.24 39.31 51.22 42.48L51.22 42.48L51.22 42.48Q50.02 43.84 47.89 45.19L47.89 45.19L47.89 45.19Q52.16 44.51 56.94 40.04L56.94 40.04L56.94 40.04Q57.20 39.83 57.41 39.86L57.41 39.86L57.41 39.86Q57.62 39.88 57.62 40.09L57.62 40.09L57.62 40.09Q57.62 40.30 57.41 40.51L57.41 40.51L57.41 40.51Q51.69 45.92 46.75 45.92L46.75 45.92L46.75 45.92Q46.64 45.92 46.54 45.92ZM51.58 40.46L51.58 40.46L51.58 40.46Q52.88 38.48 52.88 37.10L52.88 37.10L52.88 37.10Q52.88 35.72 51.69 35.00L51.69 35.00L51.69 35.00Q51.01 34.42 50.13 34.42L50.13 34.42L50.13 34.42Q46.96 34.42 44.28 36.92L44.28 36.92L44.28 36.92Q41.60 39.42 40.72 42.22L40.72 42.22L40.72 42.22Q40.35 43.21 40.35 44.28L40.35 44.28L40.35 44.28Q40.35 45.34 41.16 45.79L41.16 45.79L41.16 45.79Q41.96 46.23 42.95 46.23L42.95 46.23L42.95 46.23Q43.94 46.23 45.81 45.24L45.81 45.24L45.81 45.24Q45.71 45.24 45.50 45.14L45.50 45.14L45.50 45.14Q44.88 44.82 44.88 44.30L44.88 44.30L44.88 44.30Q44.88 42.48 46.90 40.61L46.90 40.61L46.90 40.61Q48.36 39.31 49.87 39.31L49.87 39.31L49.87 39.31Q51.38 39.31 51.58 40.46ZM68.43 38.79L68.43 38.79L68.43 38.79Q67.91 39.57 67.03 40.77L67.03 40.77L67.03 40.77Q66.14 41.96 65.36 43.06L65.36 43.06L65.36 43.06Q64.58 44.15 64.58 44.69L64.58 44.69L64.58 44.69Q64.58 45.24 65.10 45.24L65.10 45.24L65.10 45.24Q66.04 45.24 67.86 43.58L67.86 43.58L69.52 41.96L69.52 41.96Q72.07 39.21 74.00 36.66L74.00 36.66L75.92 34.32L75.92 34.32Q76.80 33.33 77.79 33.28L77.79 33.28L77.79 33.28Q79.30 33.28 80.60 34.42L80.60 34.42L80.60 34.42Q80.29 34.89 79.59 35.78L79.59 35.78L79.59 35.78Q78.88 36.66 78.18 37.57L78.18 37.57L78.18 37.57Q77.48 38.48 76.57 39.68L76.57 39.68L76.57 39.68Q75.66 40.87 74.98 41.91L74.98 41.91L74.98 41.91Q74.31 42.95 73.61 44.12L73.61 44.12L73.61 44.12Q72.90 45.29 72.59 46.12L72.59 46.12L72.59 46.12Q71.81 48.41 72.64 48.98L72.64 48.98L72.64 48.98Q72.90 49.24 72.54 49.24L72.54 49.24L72.54 49.24Q72.44 49.24 72.33 49.19L72.33 49.19L72.33 49.19Q70.36 48.52 70.36 45.97L70.36 45.97L70.36 45.97Q70.36 43.42 72.02 39.94L72.02 39.94L72.02 39.94Q66.46 47.11 62.97 47.11L62.97 47.11L62.97 47.11Q60.32 47.11 60.32 44.62L60.32 44.62L60.32 44.62Q60.32 43.73 60.68 42.54L60.68 42.54L60.68 42.54Q61.46 40.20 65.99 35.15L65.99 35.15L65.99 35.15Q66.56 34.48 66.56 34.01L66.56 34.01L66.56 34.01Q66.56 33.54 65.94 33.54L65.94 33.54L65.94 33.54Q65.31 33.54 64.06 34.48L64.06 34.48L64.06 34.48Q62.82 35.41 60.58 37.52L60.58 37.52L60.58 37.52Q58.34 39.62 57.85 40.04L57.85 40.04L57.85 40.04Q57.36 40.46 57.36 39.83L57.36 39.83L57.36 39.83Q57.36 39.52 58.34 38.71L58.34 38.71L58.34 38.71Q59.33 37.91 61.05 36.11L61.05 36.11L61.05 36.11Q62.76 34.32 64.04 33.36L64.04 33.36L64.04 33.36Q65.31 32.40 66.98 32.40L66.98 32.40L66.98 32.40Q68.85 32.40 69.52 33.80L69.52 33.80L69.52 33.80Q69.78 34.32 69.78 35.15L69.78 35.15L69.78 35.15Q69.78 35.98 69.37 37.00L69.37 37.00L69.37 37.00Q68.95 38.01 68.43 38.79ZM94.54 35.15L94.54 35.15L94.54 35.15Q95.26 34.32 95.26 33.85L95.26 33.85L95.26 33.85Q95.26 33.38 94.30 33.38L94.30 33.38L94.30 33.38Q93.34 33.38 91.26 35.20L91.26 35.20L91.26 35.20Q89.34 36.87 86.61 40.77L86.61 40.77L86.61 40.77Q83.88 44.67 82.65 46.05L82.65 46.05L82.65 46.05Q81.43 47.42 80.50 47.42L80.50 47.42L80.50 47.42Q80.39 47.42 80.29 47.42L80.29 47.42L80.29 47.42Q78.94 47.42 77.64 46.33L77.64 46.33L77.64 46.33Q77.95 45.86 79.14 44.30L79.14 44.30L79.14 44.30Q81.80 41.08 83.77 38.06L83.77 38.06L83.77 38.06Q81.54 40.30 79.98 41.55L79.98 41.55L79.98 41.55Q79.46 41.96 79.38 41.60L79.38 41.60L79.38 41.60Q79.30 41.24 79.61 40.95L79.61 40.95L79.61 40.95Q79.92 40.66 80.65 40.01L80.65 40.01L80.65 40.01Q81.38 39.36 81.61 39.16L81.61 39.16L81.61 39.16Q81.85 38.95 82.50 38.35L82.50 38.35L82.50 38.35Q83.15 37.75 83.46 37.39L83.46 37.39L83.46 37.39Q84.92 35.67 85.59 34.48L85.59 34.48L85.59 34.48Q85.85 33.85 85.83 33.25L85.83 33.25L85.83 33.25Q85.80 32.66 85.57 32.47L85.57 32.47L85.57 32.47Q85.33 32.29 85.38 32.03L85.38 32.03L85.38 32.03Q85.38 31.62 85.80 31.62L85.80 31.62L85.80 31.62Q86.01 31.62 86.27 31.72L86.27 31.72L86.27 31.72Q87.88 32.45 87.88 34.61L87.88 34.61L87.88 34.61Q87.88 36.76 86.94 39.21L86.94 39.21L86.94 39.21Q88.97 36.56 90.01 35.41L90.01 35.41L90.01 35.41Q92.72 32.40 95.32 32.40L95.32 32.40L95.32 32.40Q97.86 32.40 98.33 34.58L98.33 34.58L98.33 34.58Q98.38 34.89 98.38 35.54L98.38 35.54L98.38 35.54Q98.38 36.19 97.89 37.28L97.89 37.28L97.89 37.28Q97.40 38.38 95.58 40.87L95.58 40.87L95.58 40.87Q93.76 43.37 93.47 44.02L93.47 44.02L93.47 44.02Q93.18 44.67 93.29 44.98L93.29 44.98L93.29 44.98Q93.39 45.29 93.76 45.34L93.76 45.34L93.76 45.34Q94.38 45.45 95.89 44.51L95.89 44.51L95.89 44.51Q98.02 43.00 101.40 39.88L101.40 39.88L101.40 39.88Q101.97 39.31 101.97 39.99L101.97 39.99L101.97 39.99Q101.97 40.25 101.71 40.51L101.71 40.51L101.71 40.51Q96.67 45.19 94.22 46.33L94.22 46.33L94.22 46.33Q91.36 47.79 89.75 46.80L89.75 46.80L89.75 46.80Q88.76 46.18 88.76 45.06L88.76 45.06L88.76 45.06Q88.76 43.94 89.18 42.80L89.18 42.80L89.18 42.80Q90.12 40.14 94.54 35.15ZM110.40 28.96L110.40 28.96L110.40 28.96Q111.54 27.25 112.24 26.23L112.24 26.23L112.24 26.23Q112.94 25.22 113.36 24.75L113.36 24.75L113.36 24.75Q113.78 24.28 115.23 23.95L115.23 23.95L115.23 23.95Q116.69 23.61 118.04 23.61L118.04 23.61L118.04 23.61Q119.39 23.61 119.39 23.89L119.39 23.89L119.39 23.89Q119.39 24.18 117.16 26.31L117.16 26.31L117.16 26.31Q114.92 28.44 111.96 31.98L111.96 31.98L111.96 31.98Q115.49 32.55 116.58 34.22L116.58 34.22L116.58 34.22Q117.00 34.94 116.71 35.15L116.71 35.15L116.71 35.15Q116.43 35.36 116.06 35.00L116.06 35.00L116.06 35.00Q114.97 33.90 112.58 33.90L112.58 33.90L112.58 33.90Q111.54 33.90 110.24 34.11L110.24 34.11L110.24 34.11Q106.03 39.52 104.94 42.95L104.94 42.95L104.94 42.95Q104.57 43.94 104.57 44.62L104.57 44.62L104.57 44.62Q104.57 46.44 106.08 46.44L106.08 46.44L106.08 46.44Q107.69 46.44 110.60 44.20L110.60 44.20L110.60 44.20Q114.40 41.34 117.21 38.53L117.21 38.53L117.21 38.53Q117.73 37.96 117.88 38.27L117.88 38.27L117.88 38.27Q118.04 38.58 117.62 38.95L117.62 38.95L117.62 38.95Q113.15 43.63 110.11 45.84L110.11 45.84L110.11 45.84Q107.07 48.05 104.52 48.05L104.52 48.05L104.52 48.05Q101.04 48.05 101.04 44.36L101.04 44.36L101.04 44.36Q101.04 42.59 102.02 40.14L102.02 40.14L101.09 41.03L101.09 41.03Q100.67 41.44 100.49 41.26L100.49 41.26L100.49 41.26Q100.31 41.08 100.31 40.92L100.31 40.92L100.31 40.92Q100.31 40.77 100.72 40.40L100.72 40.40L100.72 40.40Q104.52 37.08 105.92 35.36L105.92 35.36L105.92 35.36Q104.94 35.72 104.60 35.41L104.60 35.41L104.60 35.41Q104.26 35.10 104.13 34.58L104.13 34.58L104.13 34.58Q104.00 34.06 104.65 33.31L104.65 33.31L104.65 33.31Q105.30 32.55 106.57 32.21L106.57 32.21L106.57 32.21Q107.85 31.88 108.47 31.82L108.47 31.82L108.47 31.82Q109.25 30.68 110.40 28.96ZM127.61 38.69L127.61 38.69L127.61 38.69Q130.36 37.18 130.36 35.62L130.36 35.62L130.36 35.62Q130.36 34.06 128.49 34.06L128.49 34.06L128.49 34.06Q127.61 34.06 126.62 34.53L126.62 34.53L126.62 34.53Q124.44 35.52 122.41 37.96L122.41 37.96L122.41 37.96Q119.91 40.98 119.91 43.58L119.91 43.58L119.91 43.58Q119.91 44.56 120.46 45.42L120.46 45.42L120.46 45.42Q121.00 46.28 122.41 46.28L122.41 46.28L122.41 46.28Q124.85 46.28 128.60 43.71L128.60 43.71L128.60 43.71Q132.34 41.13 135.04 38.53L135.04 38.53L135.04 38.53Q135.67 37.91 135.67 38.48L135.67 38.48L135.67 38.48Q135.67 38.84 135.36 39.10L135.36 39.10L135.36 39.10Q133.43 40.87 132.78 41.47L132.78 41.47L132.78 41.47Q132.13 42.07 130.21 43.60L130.21 43.60L130.21 43.60Q128.28 45.14 127.09 45.76L127.09 45.76L127.09 45.76Q123.40 47.68 120.82 47.68L120.82 47.68L120.82 47.68Q118.25 47.68 116.77 46.51L116.77 46.51L116.77 46.51Q115.28 45.34 115.28 43.26L115.28 43.26L115.28 43.26Q115.28 38.84 119.24 35.65L119.24 35.65L119.24 35.65Q123.19 32.45 127.50 32.45L127.50 32.45L127.50 32.45Q130.42 32.45 131.40 33.70L131.40 33.70L131.40 33.70Q131.82 34.32 131.82 35.02L131.82 35.02L131.82 35.02Q131.82 35.72 131.35 36.56L131.35 36.56L131.35 36.56Q130.42 38.17 127.84 39.39L127.84 39.39L127.84 39.39Q125.27 40.61 122.98 40.61L122.98 40.61L122.98 40.61Q122.10 40.61 122.02 40.46L122.02 40.46L122.02 40.46Q121.94 40.30 122.15 40.22L122.15 40.22L122.15 40.22Q122.36 40.14 122.72 40.14L122.72 40.14L122.72 40.14Q124.80 40.14 127.61 38.69ZM147.58 36.40L147.58 36.40L147.58 36.40Q145.29 39.05 143.86 41.26L143.86 41.26L143.86 41.26Q142.43 43.47 142.43 44.38L142.43 44.38L142.43 44.38Q142.43 45.29 143.49 45.29L143.49 45.29L143.49 45.29Q144.56 45.29 147.86 43.16L147.86 43.16L147.86 43.16Q151.16 41.03 153.97 38.38L153.97 38.38L153.97 38.38Q154.23 38.12 154.44 38.17L154.44 38.17L154.44 38.17Q154.65 38.22 154.65 38.43L154.65 38.43L154.65 38.43Q154.65 38.64 154.44 38.90L154.44 38.90L154.44 38.90Q147.73 45.03 144.20 46.59L144.20 46.59L144.20 46.59Q142.64 47.22 141.96 47.22L141.96 47.22L141.96 47.22Q139.46 47.22 138.55 46.38L138.55 46.38L138.55 46.38Q137.64 45.55 137.64 44.56L137.64 44.56L137.64 44.56Q137.64 42.59 138.42 41.55L138.42 41.55L138.42 41.55Q140.97 37.96 142.48 35.46L142.48 35.46L142.48 35.46Q142.95 34.74 142.30 34.45L142.30 34.45L142.30 34.45Q141.65 34.16 140.69 34.16L140.69 34.16L140.69 34.16Q139.72 34.16 139.67 34.11L139.67 34.11L139.67 34.11Q136.19 38.79 132.76 41.50L132.76 41.50L132.76 41.50Q132.34 41.86 132.29 41.50L132.29 41.50L132.29 41.50Q132.29 41.08 132.86 40.51L132.86 40.51L132.86 40.51Q136.50 37.39 138.84 33.90L138.84 33.90L138.84 33.90Q138.37 33.59 138.37 33.05L138.37 33.05L138.37 33.05Q138.37 32.50 138.45 31.72L138.45 31.72L138.45 31.72Q138.53 30.94 139.26 29.64L139.26 29.64L139.26 29.64Q140.50 27.46 141.86 27.46L141.86 27.46L141.86 27.46Q143 27.46 143 28.70L143 28.70L143 28.70Q143 30.42 141.39 32.45L141.39 32.45L141.39 32.45Q140.61 33.38 139.93 33.80L139.93 33.80L139.93 33.80Q141.86 33.18 145.55 33.18L145.55 33.18L145.55 33.18Q147.37 33.18 148.15 34.53L148.15 34.53L148.15 34.53Q148.25 34.74 148.25 35.15L148.25 35.15L148.25 35.15Q148.25 35.57 147.58 36.40ZM181.06 46.33L181.06 46.33L181.06 46.33Q176.28 47.48 173.32 46.96L173.32 46.96L173.32 46.96Q167.96 46.02 166.50 43.21L166.50 43.21L166.50 43.21Q165.98 42.22 165.98 41.47L165.98 41.47L165.98 41.47Q165.98 40.72 166.09 40.25L166.09 40.25L166.09 40.25Q166.40 38.64 168.09 36.82L168.09 36.82L168.09 36.82Q169.78 35.00 172.80 33.33L172.80 33.33L175.50 31.82L175.50 31.82Q176.44 23.19 186.37 17.06L186.37 17.06L186.37 17.06Q190.27 14.61 192.92 14.61L192.92 14.61L192.92 14.61Q193.80 14.61 194.53 14.87L194.53 14.87L194.53 14.87Q196.25 15.50 196.25 17.11L196.25 17.11L196.25 17.11Q196.25 19.92 192.45 22.93L192.45 22.93L192.45 22.93Q190.37 24.65 187.93 26.10L187.93 26.10L178.88 31.51L178.88 31.51Q178.88 31.88 178.88 33.05L178.88 33.05L178.88 33.05Q178.88 34.22 179.35 36.14L179.35 36.14L179.35 36.14Q183.30 33.90 187.98 33.12L187.98 33.12L187.98 33.12Q190.27 32.71 191.98 32.71L191.98 32.71L191.98 32.71Q196.25 32.71 196.82 35.41L196.82 35.41L196.82 35.41Q196.87 35.78 196.87 36.09L196.87 36.09L196.87 36.09Q196.87 37.86 194.95 39.78L194.95 39.78L194.95 39.78Q191.57 43.16 183.61 45.60L183.61 45.60L183.61 45.60Q186.78 49.92 190.58 51.48L190.58 51.48L190.58 51.48Q193.13 52.57 194.53 52.57L194.53 52.57L194.53 52.57Q195.94 52.57 196.48 51.97L196.48 51.97L196.48 51.97Q197.03 51.38 197.03 50.73L197.03 50.73L197.03 50.73Q197.03 50.08 196.30 49.19L196.30 49.19L196.30 49.19Q194.74 47.16 191.72 47.16L191.72 47.16L191.72 47.16Q191.41 47.16 190.76 47.24L190.76 47.24L190.76 47.24Q190.11 47.32 190.11 47.16L190.11 47.16L190.11 47.16Q189.96 46.75 190.84 46.59L190.84 46.59L190.84 46.59Q192.24 46.38 193.44 46.38L193.44 46.38L193.44 46.38Q196.77 46.38 198.17 48.20L198.17 48.20L198.17 48.20Q198.90 49.04 198.90 49.89L198.90 49.89L198.90 49.89Q198.90 50.75 198.28 51.64L198.28 51.64L198.28 51.64Q197.08 53.40 194.43 53.40L194.43 53.40L194.43 53.40Q192.35 53.40 190.06 52.42L190.06 52.42L190.06 52.42Q184.70 50.13 181.06 46.33ZM195.62 36.40L195.62 36.40L195.62 36.40Q195.62 34.94 192.61 34.94L192.61 34.94L192.61 34.94Q187.51 34.94 179.82 38.06L179.82 38.06L179.82 38.06Q180.91 41.76 183.09 44.93L183.09 44.93L183.09 44.93Q189.44 42.95 193.44 39.47L193.44 39.47L193.44 39.47Q195.62 37.60 195.62 36.40ZM170.77 45.55L170.77 45.55L170.77 45.55Q172.43 46.23 174.41 46.23L174.41 46.23L174.41 46.23Q177.63 46.23 180.39 45.66L180.39 45.66L180.39 45.66Q177.74 42.59 176.59 39.57L176.59 39.57L176.59 39.57Q174.82 40.61 174.46 41.00L174.46 41.00L174.46 41.00Q174.10 41.39 174.04 41.37L174.04 41.37L174.04 41.37Q173.99 41.34 174.04 41.03L174.04 41.03L174.04 41.03Q174.20 39.88 176.02 38.38L176.02 38.38L176.12 38.32L176.12 38.32Q175.40 35.88 175.40 33.64L175.40 33.64L173.89 34.58L173.89 34.58Q171.03 36.56 169.55 38.69L169.55 38.69L169.55 38.69Q168.06 40.82 168.06 42.69L168.06 42.69L168.06 42.69Q168.06 44.56 170.77 45.55ZM189.31 23.24L189.31 23.24L189.31 23.24Q191.67 21.16 191.67 19.47L191.67 19.47L191.67 19.47Q191.67 17.78 189.90 17.78L189.90 17.78L189.90 17.78Q187.88 17.78 185.07 19.71L185.07 19.71L185.07 19.71Q179.71 23.35 179.09 29.90L179.09 29.90L179.09 29.90Q180.02 29.33 182.26 28.08L182.26 28.08L182.26 28.08Q186.94 25.32 189.31 23.24ZM257.92 22.26L257.92 22.26L257.92 22.26Q255.01 18.04 246.84 16.85L246.84 16.85L246.84 16.85Q244.50 16.48 242.27 16.48L242.27 16.48L242.27 16.48Q234.00 16.48 226.04 19.45L226.04 19.45L226.04 19.45Q220.01 21.68 216.89 24.65L216.89 24.65L216.89 24.65Q214.86 26.47 214.86 28.08L214.86 28.08L214.86 28.08Q214.86 29.07 215.38 29.74L215.38 29.74L215.38 29.74Q215.90 30.42 215.64 30.58L215.64 30.58L215.64 30.58Q215.38 30.73 215.12 30.47L215.12 30.47L215.12 30.47Q213.82 28.96 213.82 26.68L213.82 26.68L213.82 26.68Q213.82 22.93 216.79 20.54L216.79 20.54L216.79 20.54Q220.84 17.32 228.10 15.16L228.10 15.16L228.10 15.16Q235.35 13 241.75 13L241.75 13L241.75 13Q248.14 13 252.25 14.77L252.25 14.77L252.25 14.77Q260.36 18.20 260.36 26.57L260.36 26.57L260.36 26.57Q260.36 33.38 254.38 39.62L254.38 39.62L254.38 39.62Q247.31 46.96 234.05 49.19L234.05 49.19L234.05 49.19Q230.05 49.87 226.77 49.87L226.77 49.87L226.77 49.87Q215.38 49.87 212.99 45.19L212.99 45.19L212.99 45.19Q212.73 44.67 212.73 44.56L212.73 44.56L212.73 44.56Q212.73 44.15 213.56 44.77L213.56 44.77L213.56 44.77Q216.68 46.96 223.78 46.96L223.78 46.96L223.78 46.96Q230.88 46.96 238.29 44.85L238.29 44.85L238.29 44.85Q245.70 42.74 251.06 38.69L251.06 38.69L251.06 38.69Q255.06 35.67 257.14 32.60L257.14 32.60L257.14 32.60Q259.32 29.38 259.32 26.86L259.32 26.86L259.32 26.86Q259.32 24.34 257.92 22.26ZM236.55 18.20L236.55 18.20L237.22 18.20L237.22 18.20Q237.59 18.20 237.59 18.36L237.59 18.36L237.59 18.36Q237.59 18.72 237.17 19.14L237.17 19.14L237.17 19.14Q232.75 24.02 227.68 31.38L227.68 31.38L227.68 31.38Q222.61 38.74 221.21 42.48L221.21 42.48L221.21 42.48Q221.05 42.90 220.84 42.90L220.84 42.90L220.84 42.90Q220.38 42.90 220.38 42.38L220.38 42.38L220.38 42.38Q220.38 39.57 227.97 28.89L227.97 28.89L227.97 28.89Q235.56 18.20 236.55 18.20ZM269.00 38.69L269.00 38.69L269.00 38.69Q271.75 37.18 271.75 35.62L271.75 35.62L271.75 35.62Q271.75 34.06 269.88 34.06L269.88 34.06L269.88 34.06Q269.00 34.06 268.01 34.53L268.01 34.53L268.01 34.53Q265.82 35.52 263.80 37.96L263.80 37.96L263.80 37.96Q261.30 40.98 261.30 43.58L261.30 43.58L261.30 43.58Q261.30 44.56 261.85 45.42L261.85 45.42L261.85 45.42Q262.39 46.28 263.80 46.28L263.80 46.28L263.80 46.28Q266.24 46.28 269.98 43.71L269.98 43.71L269.98 43.71Q273.73 41.13 276.43 38.53L276.43 38.53L276.43 38.53Q277.06 37.91 277.06 38.48L277.06 38.48L277.06 38.48Q277.06 38.84 276.74 39.10L276.74 39.10L276.74 39.10Q274.82 40.87 274.17 41.47L274.17 41.47L274.17 41.47Q273.52 42.07 271.60 43.60L271.60 43.60L271.60 43.60Q269.67 45.14 268.48 45.76L268.48 45.76L268.48 45.76Q264.78 47.68 262.21 47.68L262.21 47.68L262.21 47.68Q259.64 47.68 258.15 46.51L258.15 46.51L258.15 46.51Q256.67 45.34 256.67 43.26L256.67 43.26L256.67 43.26Q256.67 38.84 260.62 35.65L260.62 35.65L260.62 35.65Q264.58 32.45 268.89 32.45L268.89 32.45L268.89 32.45Q271.80 32.45 272.79 33.70L272.79 33.70L272.79 33.70Q273.21 34.32 273.21 35.02L273.21 35.02L273.21 35.02Q273.21 35.72 272.74 36.56L272.74 36.56L272.74 36.56Q271.80 38.17 269.23 39.39L269.23 39.39L269.23 39.39Q266.66 40.61 264.37 40.61L264.37 40.61L264.37 40.61Q263.48 40.61 263.41 40.46L263.41 40.46L263.41 40.46Q263.33 40.30 263.54 40.22L263.54 40.22L263.54 40.22Q263.74 40.14 264.11 40.14L264.11 40.14L264.11 40.14Q266.19 40.14 269.00 38.69ZM271.65 43.94L271.65 43.94L271.65 43.94Q271.60 43.89 271.60 43.78L271.60 43.78L271.60 43.78Q271.60 43.68 271.78 43.68L271.78 43.68L271.78 43.68Q271.96 43.68 272.01 43.89L272.01 43.89L272.01 43.89Q272.95 45.97 275.08 45.97L275.08 45.97L275.08 45.97Q277.73 45.97 279.71 43.37L279.71 43.37L279.71 43.37Q281.16 41.44 282.28 39.34L282.28 39.34L282.28 39.34Q283.40 37.23 284.15 35.98L284.15 35.98L284.15 35.98Q284.91 34.74 286.49 33.18L286.49 33.18L286.49 33.18Q288.08 31.62 289.38 31.25L289.38 31.25L289.38 31.25Q289.07 31.10 288.34 31.10L288.34 31.10L288.34 31.10Q287.61 31.10 285.61 32.16L285.61 32.16L285.61 32.16Q283.61 33.23 281.63 34.87L281.63 34.87L281.63 34.87Q279.66 36.50 277.37 38.58L277.37 38.58L277.37 38.58Q275.08 40.66 274.61 41.03L274.61 41.03L274.61 41.03Q274.14 41.39 274.04 41.03L274.04 41.03L274.04 41.03Q273.94 40.66 274.30 40.35L274.30 40.35L274.30 40.35Q275.65 39.21 278.20 36.79L278.20 36.79L278.20 36.79Q280.75 34.37 282.07 33.25L282.07 33.25L282.07 33.25Q283.40 32.14 285.06 31.33L285.06 31.33L285.06 31.33Q286.73 30.52 287.56 30.52L287.56 30.52L287.56 30.52Q289.64 30.52 290.11 31.25L290.11 31.25L290.11 31.25Q288.76 31.82 287.90 34.27L287.90 34.27L287.90 34.27Q287.04 36.71 285.97 39.94L285.97 39.94L285.97 39.94Q284.91 43.16 283.30 44.98L283.30 44.98L283.30 44.98Q284.65 44.46 287.48 42.56L287.48 42.56L287.48 42.56Q290.32 40.66 292.50 38.43L292.50 38.43L292.50 38.43Q292.97 38.01 293.18 38.32L293.18 38.32L293.18 38.32Q293.18 38.43 293.18 38.56L293.18 38.56L293.18 38.56Q293.18 38.69 292.19 39.68L292.19 39.68L292.19 39.68Q291.20 40.66 289.77 41.89L289.77 41.89L289.77 41.89Q288.34 43.11 286.21 44.62L286.21 44.62L286.21 44.62Q281.79 47.74 277.34 47.74L277.34 47.74L277.34 47.74Q272.90 47.74 271.65 43.94ZM301.13 30.94L301.13 30.94L301.13 30.94Q300.56 30.47 300.66 29.59L300.66 29.59L300.66 29.59Q300.77 28.70 301.60 27.72L301.60 27.72L301.60 27.72Q302.43 26.73 303.84 26.73L303.84 26.73L303.84 26.73Q304.25 26.73 304.72 27.12L304.72 27.12L304.72 27.12Q305.19 27.51 305.08 28.42L305.08 28.42L305.08 28.42Q304.98 29.33 304.25 30.13L304.25 30.13L304.25 30.13Q303.52 30.94 302.61 31.17L302.61 31.17L302.61 31.17Q301.70 31.41 301.13 30.94ZM300.46 33.70L300.46 33.70L300.46 33.70Q298.32 35.88 296.89 39.23L296.89 39.23L296.89 39.23Q295.46 42.59 295.46 43.94L295.46 43.94L295.46 43.94Q295.46 45.29 296.53 45.29L296.53 45.29L296.53 45.29Q297.60 45.29 300.07 43.73L300.07 43.73L300.07 43.73Q302.54 42.17 305.71 39.31L305.71 39.31L305.71 39.31Q306.38 38.69 306.38 39.47L306.38 39.47L306.38 39.47Q306.38 39.57 306.28 39.68L306.28 39.68L306.28 39.68Q303.78 41.86 302.07 43.26L302.07 43.26L302.07 43.26Q300.35 44.67 297.99 45.94L297.99 45.94L297.99 45.94Q295.62 47.22 294.11 47.22L294.11 47.22L294.11 47.22Q292.24 47.22 291.33 46.38L291.33 46.38L291.33 46.38Q290.42 45.55 290.42 44.56L290.42 44.56L290.42 44.56Q290.42 42.69 291.10 41.60L291.10 41.60L291.10 41.60Q291.77 40.51 293.38 38.58L293.38 38.58L293.38 38.58Q292.81 39.05 291.59 40.14L291.59 40.14L291.59 40.14Q290.37 41.24 289.90 41.60L289.90 41.60L289.90 41.60Q289.43 41.96 289.43 41.39L289.43 41.39L289.43 41.39Q289.43 41.03 290.26 40.35L290.26 40.35L290.26 40.35Q291.10 39.68 293.88 36.92L293.88 36.92L293.88 36.92Q296.66 34.16 297.67 33.64L297.67 33.64L297.67 33.64Q298.69 33.12 299.34 33.12L299.34 33.12L299.34 33.12Q299.99 33.12 300.30 33.31L300.30 33.31L300.30 33.31Q300.61 33.49 300.46 33.70ZM299.94 61.05L299.94 61.05L299.94 61.05Q295.41 61.05 292.42 59.07L292.42 59.07L292.42 59.07Q289.43 57.10 289.43 53.46L289.43 53.46L289.43 53.46Q289.43 53.25 289.59 53.25L289.59 53.25L289.59 53.25Q289.95 53.25 290.06 53.66L290.06 53.66L290.06 53.66Q290.52 56.32 292.60 58.24L292.60 58.24L292.60 58.24Q293.54 59.12 295.18 59.70L295.18 59.70L295.18 59.70Q296.82 60.27 297.91 60.27L297.91 60.27L297.91 60.27Q299.00 60.27 299.31 60.27L299.31 60.27L299.31 60.27Q305.08 59.96 309.40 54.44L309.40 54.44L309.40 54.44Q311.43 51.84 312.99 49.27L312.99 49.27L312.99 49.27Q314.55 46.70 316.37 43.52L316.37 43.52L316.37 43.52Q318.19 40.35 319.44 38.69L319.44 38.69L319.44 38.69Q317.82 40.51 315.38 42.85L315.38 42.85L315.38 42.85Q312.94 45.19 311.17 46.23L311.17 46.23L311.17 46.23Q309.40 47.27 307.89 47.27L307.89 47.27L307.89 47.27Q306.38 47.27 305.32 46.36L305.32 46.36L305.32 46.36Q304.25 45.45 304.25 44.10L304.25 44.10L304.25 44.10Q304.25 40.25 307.68 36.56L307.68 36.56L307.68 36.56Q310.28 33.80 314.13 32.66L314.13 32.66L314.13 32.66Q315.85 32.08 317.49 32.08L317.49 32.08L317.49 32.08Q319.12 32.08 320.66 32.99L320.66 32.99L320.66 32.99Q322.19 33.90 322.61 35.15L322.61 35.15L322.61 35.15Q323.44 35.15 324.43 35.85L324.43 35.85L324.43 35.85Q325.42 36.56 325.42 36.87L325.42 36.87L325.42 36.87Q325.42 37.18 325.00 37.39L325.00 37.39L325.00 37.39Q323.34 38.22 319.75 44.67L319.75 44.67L319.75 44.67Q316.26 50.86 311.58 55.74L311.58 55.74L311.58 55.74Q309.24 58.19 306.15 59.62L306.15 59.62L306.15 59.62Q303.06 61.05 299.94 61.05ZM308.00 44.72L308.00 44.72L308.00 44.72Q308.00 45.92 309.24 45.92L309.24 45.92L309.24 45.92Q310.23 45.92 311.69 44.82L311.69 44.82L311.69 44.82Q315.22 42.48 319.07 38.01L319.07 38.01L319.07 38.01Q320.84 35.98 320.84 34.84L320.84 34.84L320.84 34.84Q320.84 34.42 320.55 34.09L320.55 34.09L320.55 34.09Q320.27 33.75 319.33 33.75L319.33 33.75L319.33 33.75Q318.40 33.75 316.34 34.84L316.34 34.84L316.34 34.84Q314.29 35.93 312.13 38.14L312.13 38.14L312.13 38.14Q309.97 40.35 308.98 42.09L308.98 42.09L308.98 42.09Q308.00 43.84 308.00 44.72ZM340.08 35.15L340.08 35.15L340.08 35.15Q340.81 34.32 340.81 33.85L340.81 33.85L340.81 33.85Q340.81 33.38 339.85 33.38L339.85 33.38L339.85 33.38Q338.88 33.38 336.80 35.20L336.80 35.20L336.80 35.20Q334.88 36.87 332.15 40.77L332.15 40.77L332.15 40.77Q329.42 44.67 328.20 46.05L328.20 46.05L328.20 46.05Q326.98 47.42 326.04 47.42L326.04 47.42L326.04 47.42Q325.94 47.42 325.83 47.42L325.83 47.42L325.83 47.42Q324.48 47.42 323.18 46.33L323.18 46.33L323.18 46.33Q323.49 45.86 324.69 44.30L324.69 44.30L324.69 44.30Q327.34 41.08 329.32 38.06L329.32 38.06L329.32 38.06Q327.08 40.30 325.52 41.55L325.52 41.55L325.52 41.55Q325.00 41.96 324.92 41.60L324.92 41.60L324.92 41.60Q324.84 41.24 325.16 40.95L325.16 40.95L325.16 40.95Q325.47 40.66 326.20 40.01L326.20 40.01L326.20 40.01Q326.92 39.36 327.16 39.16L327.16 39.16L327.16 39.16Q327.39 38.95 328.04 38.35L328.04 38.35L328.04 38.35Q328.69 37.75 329.00 37.39L329.00 37.39L329.00 37.39Q330.46 35.67 331.14 34.48L331.14 34.48L331.14 34.48Q331.40 33.85 331.37 33.25L331.37 33.25L331.37 33.25Q331.34 32.66 331.11 32.47L331.11 32.47L331.11 32.47Q330.88 32.29 330.93 32.03L330.93 32.03L330.93 32.03Q330.93 31.62 331.34 31.62L331.34 31.62L331.34 31.62Q331.55 31.62 331.81 31.72L331.81 31.72L331.81 31.72Q333.42 32.45 333.42 34.61L333.42 34.61L333.42 34.61Q333.42 36.76 332.49 39.21L332.49 39.21L332.49 39.21Q334.52 36.56 335.56 35.41L335.56 35.41L335.56 35.41Q338.26 32.40 340.86 32.40L340.86 32.40L340.86 32.40Q343.41 32.40 343.88 34.58L343.88 34.58L343.88 34.58Q343.93 34.89 343.93 35.54L343.93 35.54L343.93 35.54Q343.93 36.19 343.43 37.28L343.43 37.28L343.43 37.28Q342.94 38.38 341.12 40.87L341.12 40.87L341.12 40.87Q339.30 43.37 339.01 44.02L339.01 44.02L339.01 44.02Q338.73 44.67 338.83 44.98L338.83 44.98L338.83 44.98Q338.94 45.29 339.30 45.34L339.30 45.34L339.30 45.34Q339.92 45.45 341.43 44.51L341.43 44.51L341.43 44.51Q343.56 43.00 346.94 39.88L346.94 39.88L346.94 39.88Q347.52 39.31 347.52 39.99L347.52 39.99L347.52 39.99Q347.52 40.25 347.26 40.51L347.26 40.51L347.26 40.51Q342.21 45.19 339.77 46.33L339.77 46.33L339.77 46.33Q336.91 47.79 335.30 46.80L335.30 46.80L335.30 46.80Q334.31 46.18 334.31 45.06L334.31 45.06L334.31 45.06Q334.31 43.94 334.72 42.80L334.72 42.80L334.72 42.80Q335.66 40.14 340.08 35.15ZM357.24 54.08L357.24 54.08L357.24 54.08Q356.98 54.65 356.77 54.65L356.77 54.65L356.77 54.65Q356.56 54.65 356.56 54.13L356.56 54.13L356.56 54.13Q356.56 51.12 365.72 36.53L365.72 36.53L365.72 36.53Q374.87 21.94 377.99 18.25L377.99 18.25L377.99 18.25Q379.34 13.99 381.06 12.69L381.06 12.69L381.06 12.69Q381.42 12.43 382.17 12.43L382.17 12.43L382.17 12.43Q382.93 12.43 384.62 13.10L384.62 13.10L384.62 13.10Q386.31 13.78 386.31 14.72L386.31 14.72L386.31 14.72Q386.31 15.13 385.89 15.44L385.89 15.44L385.89 15.44Q383.55 17.42 382.25 22.88L382.25 22.88L382.25 22.88Q380.95 28.34 380.95 34.01L380.95 34.01L380.95 34.01Q380.95 40.77 382.51 44.56L382.51 44.56L382.51 44.56Q384.64 39.05 392.26 26.23L392.26 26.23L392.26 26.23Q399.88 13.42 400.76 13.42L400.76 13.42L400.76 13.42Q400.82 13.42 401.23 13.36L401.23 13.36L401.23 13.36Q402.84 13.16 402.84 13.62L402.84 13.62L402.84 13.62Q402.84 13.83 402.48 14.46L402.48 14.46L402.48 14.46Q397.18 21.37 391.46 30.58L391.46 30.58L391.46 30.58Q385.74 39.78 383.03 45.71L383.03 45.71L383.03 45.71Q384.07 47.42 385.48 48.10L385.48 48.10L385.48 48.10Q386.10 48.41 386.67 48.41L386.67 48.41L386.67 48.41Q387.24 48.41 387.56 48.23L387.56 48.23L387.56 48.23Q387.87 48.05 387.97 48.13L387.97 48.13L387.97 48.13Q388.08 48.20 388.08 48.36L388.08 48.36L388.08 48.36Q388.08 48.52 387.97 48.62L387.97 48.62L387.97 48.62Q386.78 49.50 385.79 49.50L385.79 49.50L385.79 49.50Q382.67 49.50 380.48 46.51L380.48 46.51L380.48 46.51Q378.30 43.52 377.21 39.05L377.21 39.05L377.21 39.05Q376.12 34.58 376.12 30.58L376.12 30.58L376.12 30.58Q376.12 26.10 377.10 21.63L377.10 21.63L377.10 21.63Q371.54 29.17 365.51 39.03L365.51 39.03L365.51 39.03Q359.48 48.88 357.24 54.08ZM400.09 35.15L400.09 35.15L400.09 35.15Q400.71 34.48 400.71 34.01L400.71 34.01L400.71 34.01Q400.71 33.54 400.09 33.54L400.09 33.54L400.09 33.54Q399.46 33.54 398.19 34.48L398.19 34.48L398.19 34.48Q396.92 35.41 394.37 37.80L394.37 37.80L394.37 37.80Q391.82 40.20 391.33 40.59L391.33 40.59L391.33 40.59Q390.83 40.98 390.81 40.61L390.81 40.61L390.81 40.61Q390.78 40.25 391.46 39.70L391.46 39.70L391.46 39.70Q392.13 39.16 394.47 36.76L394.47 36.76L394.47 36.76Q396.81 34.37 398.11 33.38L398.11 33.38L398.11 33.38Q399.41 32.40 401.08 32.40L401.08 32.40L401.08 32.40Q402.95 32.40 403.62 33.80L403.62 33.80L403.62 33.80Q403.94 34.32 403.94 35.15L403.94 35.15L403.94 35.15Q403.94 35.98 403.52 37.00L403.52 37.00L403.52 37.00Q403.10 38.01 402.56 38.82L402.56 38.82L402.56 38.82Q402.01 39.62 401.15 40.77L401.15 40.77L401.15 40.77Q400.30 41.91 399.49 43.06L399.49 43.06L399.49 43.06Q398.68 44.20 398.68 44.72L398.68 44.72L398.68 44.72Q398.68 45.24 399.10 45.24L399.10 45.24L399.10 45.24Q401.13 45.24 406.69 38.48L406.69 38.48L406.69 38.48Q409.34 35.31 411.22 32.55L411.22 32.55L411.22 32.55Q412.88 28.70 414.13 28.34L414.13 28.34L414.13 28.34Q414.60 28.18 415.27 28.18L415.27 28.18L415.27 28.18Q415.95 28.18 416.26 28.76L416.26 28.76L416.26 28.76Q416.57 29.33 416.57 29.64L416.57 29.64L416.57 29.64Q416.57 29.95 416.13 30.13L416.13 30.13L416.13 30.13Q415.69 30.32 415.35 30.29L415.35 30.29L415.35 30.29Q415.01 30.26 414.91 30.26L414.91 30.26L414.91 30.26Q413.40 30.26 412.36 32.45L412.36 32.45L412.36 32.45Q411.74 33.80 410.77 36.76L410.77 36.76L410.77 36.76Q409.81 39.73 408.98 42.22L408.98 42.22L408.98 42.22Q408.15 44.72 406.22 48.05L406.22 48.05L406.22 48.05Q404.30 51.38 401.54 54.29L401.54 54.29L401.54 54.29Q398.79 57.20 395.02 59.18L395.02 59.18L395.02 59.18Q391.25 61.15 387.30 61.15L387.30 61.15L387.30 61.15Q383.34 61.15 380.67 59.33L380.67 59.33L380.67 59.33Q377.99 57.51 377.36 53.72L377.36 53.72L377.36 53.72Q377.36 53.46 377.47 53.35L377.47 53.35L377.47 53.35Q377.57 53.25 377.73 53.35L377.73 53.35L377.73 53.35Q377.88 53.46 377.88 53.66L377.88 53.66L377.88 53.66Q378.40 56.58 380.67 58.40L380.67 58.40L380.67 58.40Q382.93 60.22 385.89 60.22L385.89 60.22L385.89 60.22Q389.79 60.22 393.87 57.23L393.87 57.23L393.87 57.23Q397.96 54.24 401.52 49.37L401.52 49.37L401.52 49.37Q405.08 44.51 409.92 35.15L409.92 35.15L409.92 35.15Q408.72 36.97 407.06 39.10L407.06 39.10L407.06 39.10Q400.56 47.11 397.07 47.11L397.07 47.11L397.07 47.11Q394.42 47.11 394.42 44.62L394.42 44.62L394.42 44.62Q394.42 43.73 394.78 42.54L394.78 42.54L394.78 42.54Q395.51 40.46 400.09 35.15ZM427.70 34.48L427.70 34.48L427.70 34.48Q427.70 33.49 426.66 33.49L426.66 33.49L426.66 33.49Q425.78 33.49 423.93 34.29L423.93 34.29L423.93 34.29Q422.08 35.10 419.80 37.75L419.80 37.75L419.80 37.75Q417.04 41.03 417.04 43.58L417.04 43.58L417.04 43.58Q417.04 45.50 418.50 46.18L418.50 46.18L418.50 46.18Q418.96 46.38 419.59 46.38L419.59 46.38L419.59 46.38Q421.72 46.38 424.61 44.56L424.61 44.56L424.61 44.56Q427.49 42.74 432.07 38.53L432.07 38.53L432.07 38.53Q432.80 37.80 432.80 38.53L432.80 38.53L432.80 38.53Q432.80 38.84 432.48 39.10L432.48 39.10L432.48 39.10Q426.14 44.93 423.15 46.31L423.15 46.31L423.15 46.31Q420.16 47.68 418.44 47.68L418.44 47.68L418.44 47.68Q412.41 47.68 412.41 43.26L412.41 43.26L412.41 43.26Q412.41 38.84 416.39 35.65L416.39 35.65L416.39 35.65Q420.37 32.45 424.68 32.45L424.68 32.45L424.68 32.45Q427.39 32.45 428.32 33.70L428.32 33.70L428.32 33.70Q428.90 34.32 428.90 35.02L428.90 35.02L428.90 35.02Q428.90 35.72 428.53 36.48L428.53 36.48L428.53 36.48Q428.17 37.23 427.36 37.23L427.36 37.23L427.36 37.23Q426.56 37.23 427.13 36.22L427.13 36.22L427.13 36.22Q427.70 35.20 427.70 34.48Z"></path><defs id="SvgjsDefs1050"></defs></svg></g><g id="SvgjsG1053"><svg xmlns="http://www.w3.org/2000/svg" xmlns:xlink="http://www.w3.org/1999/xlink" width="129.9375" viewBox="0.9000000357627869 4 127 14.799999237060547" overflow="visible" style="overflow: visible;" version="1.1" xmlns:svgjs="http://svgjs.com/svgjs" preserveAspectRatio="none" height="15.140625" x="150.21875" y="209.125" fill="#000000" stroke="none"><path stroke="none" fill="#000000" d="M6.16 5.20L6.16 5.20Q9.88 5.20 11.14 8.12L11.14 8.12L10.28 8.82L10.28 8.82Q9.78 7.40 8.79 6.76L8.79 6.76L8.79 6.76Q7.80 6.12 6.18 6.12L6.18 6.12L6.18 6.12Q5.02 6.12 4.16 6.48L4.16 6.48L4.16 6.48Q3.30 6.84 2.85 7.46L2.85 7.46L2.85 7.46Q2.40 8.08 2.40 8.86L2.40 8.86L2.40 8.86Q2.40 9.62 2.78 10.12L2.78 10.12L2.78 10.12Q3.16 10.62 4.07 10.97L4.07 10.97L4.07 10.97Q4.98 11.32 6.58 11.60L6.58 11.60L6.58 11.60Q9.16 12.04 10.24 12.88L10.24 12.88L10.24 12.88Q11.32 13.72 11.32 15.20L11.32 15.20L11.32 15.20Q11.32 16.26 10.70 17.08L10.70 17.08L10.70 17.08Q10.08 17.90 8.95 18.35L8.95 18.35L8.95 18.35Q7.82 18.80 6.36 18.80L6.36 18.80L6.36 18.80Q4.28 18.80 2.85 17.97L2.85 17.97L2.85 17.97Q1.42 17.14 0.90 15.64L0.90 15.64L1.78 14.96L1.78 14.96Q2.18 16.38 3.39 17.13L3.39 17.13L3.39 17.13Q4.60 17.88 6.38 17.88L6.38 17.88L6.38 17.88Q8.10 17.88 9.19 17.18L9.19 17.18L9.19 17.18Q10.28 16.48 10.28 15.26L10.28 15.26L10.28 15.26Q10.28 14.20 9.39 13.58L9.39 13.58L9.39 13.58Q8.50 12.96 6.30 12.58L6.30 12.58L6.30 12.58Q4.44 12.26 3.36 11.80L3.36 11.80L3.36 11.80Q2.28 11.34 1.81 10.66L1.81 10.66L1.81 10.66Q1.34 9.98 1.34 8.96L1.34 8.96L1.34 8.96Q1.34 7.94 1.93 7.08L1.93 7.08L1.93 7.08Q2.52 6.22 3.61 5.71L3.61 5.71L3.61 5.71Q4.70 5.20 6.16 5.20L6.16 5.20ZM20.32 17.14L20.68 17.96L20.68 17.96Q20.28 18.36 19.70 18.58L19.70 18.58L19.70 18.58Q19.12 18.80 18.42 18.80L18.42 18.80L18.42 18.80Q17.20 18.80 16.51 18.13L16.51 18.13L16.51 18.13Q15.82 17.46 15.82 16.10L15.82 16.10L15.82 9.46L13.82 9.46L13.82 8.60L15.82 8.60L15.82 6.10L16.82 5.82L16.82 8.60L20.58 8.60L20.58 9.46L16.82 9.46L16.82 15.96L16.82 15.96Q16.82 16.90 17.27 17.39L17.27 17.39L17.27 17.39Q17.72 17.88 18.58 17.88L18.58 17.88L18.58 17.88Q19.58 17.88 20.32 17.14L20.32 17.14ZM27.82 8.40L27.82 8.40Q30.04 8.40 31.31 9.79L31.31 9.79L31.31 9.79Q32.58 11.18 32.58 13.60L32.58 13.60L32.58 13.60Q32.58 16.02 31.31 17.41L31.31 17.41L31.31 17.41Q30.04 18.80 27.82 18.80L27.82 18.80L27.82 18.80Q25.60 18.80 24.33 17.41L24.33 17.41L24.33 17.41Q23.06 16.02 23.06 13.60L23.06 13.60L23.06 13.60Q23.06 11.18 24.33 9.79L24.33 9.79L24.33 9.79Q25.60 8.40 27.82 8.40L27.82 8.40ZM27.82 9.26L27.82 9.26Q26.06 9.26 25.06 10.42L25.06 10.42L25.06 10.42Q24.06 11.58 24.06 13.60L24.06 13.60L24.06 13.60Q24.06 15.62 25.06 16.78L25.06 16.78L25.06 16.78Q26.06 17.94 27.82 17.94L27.82 17.94L27.82 17.94Q29.58 17.94 30.58 16.78L30.58 16.78L30.58 16.78Q31.58 15.62 31.58 13.60L31.58 13.60L31.58 13.60Q31.58 11.58 30.58 10.42L30.58 10.42L30.58 10.42Q29.58 9.26 27.82 9.26L27.82 9.26ZM41.18 8.40L41.18 8.40Q42.90 8.40 43.95 9.36L43.95 9.36L43.95 9.36Q45 10.32 45 12.12L45 12.12L45 18.60L44 18.60L44 12.44L44 12.44Q44 10.84 43.22 10.06L43.22 10.06L43.22 10.06Q42.44 9.28 41.08 9.28L41.08 9.28L41.08 9.28Q40.12 9.28 39.30 9.72L39.30 9.72L39.30 9.72Q38.48 10.16 37.99 11L37.99 11L37.99 11Q37.50 11.84 37.50 12.96L37.50 12.96L37.50 18.60L36.50 18.60L36.50 8.60L37.40 8.60L37.44 10.62L37.44 10.62Q37.92 9.54 38.91 8.97L38.91 8.97L38.91 8.97Q39.90 8.40 41.18 8.40L41.18 8.40ZM57.78 13.36L57.78 13.36Q57.78 13.70 57.74 14.02L57.74 14.02L49.80 14.02L49.80 14.02Q49.90 15.86 50.89 16.89L50.89 16.89L50.89 16.89Q51.88 17.92 53.54 17.92L53.54 17.92L53.54 17.92Q54.72 17.92 55.57 17.44L55.57 17.44L55.57 17.44Q56.42 16.96 56.80 16.08L56.80 16.08L57.64 16.52L57.64 16.52Q57.08 17.62 56.04 18.21L56.04 18.21L56.04 18.21Q55 18.80 53.54 18.80L53.54 18.80L53.54 18.80Q51.32 18.80 50.07 17.42L50.07 17.42L50.07 17.42Q48.82 16.04 48.82 13.60L48.82 13.60L48.82 13.60Q48.82 11.16 50.03 9.78L50.03 9.78L50.03 9.78Q51.24 8.40 53.42 8.40L53.42 8.40L53.42 8.40Q55.46 8.40 56.62 9.76L56.62 9.76L56.62 9.76Q57.78 11.12 57.78 13.36L57.78 13.36ZM53.42 9.28L53.42 9.28Q51.80 9.28 50.86 10.29L50.86 10.29L50.86 10.29Q49.92 11.30 49.80 13.12L49.80 13.12L56.84 13.12L56.84 13.12Q56.74 11.32 55.85 10.30L55.85 10.30L55.85 10.30Q54.96 9.28 53.42 9.28L53.42 9.28ZM75.74 9.34L73.08 18.60L71.84 18.60L67.72 5.40L68.80 5.40L72.46 17.78L75.92 5.40L77.08 5.40L80.54 17.80L84.24 5.40L85.26 5.40L81.14 18.60L79.90 18.60L77.24 9.34L76.50 6.48L76.48 6.48L75.74 9.34ZM92.08 8.40L92.08 8.40Q94.30 8.40 95.57 9.79L95.57 9.79L95.57 9.79Q96.84 11.18 96.84 13.60L96.84 13.60L96.84 13.60Q96.84 16.02 95.57 17.41L95.57 17.41L95.57 17.41Q94.30 18.80 92.08 18.80L92.08 18.80L92.08 18.80Q89.86 18.80 88.59 17.41L88.59 17.41L88.59 17.41Q87.32 16.02 87.32 13.60L87.32 13.60L87.32 13.60Q87.32 11.18 88.59 9.79L88.59 9.79L88.59 9.79Q89.86 8.40 92.08 8.40L92.08 8.40ZM92.08 9.26L92.08 9.26Q90.32 9.26 89.32 10.42L89.32 10.42L89.32 10.42Q88.32 11.58 88.32 13.60L88.32 13.60L88.32 13.60Q88.32 15.62 89.32 16.78L89.32 16.78L89.32 16.78Q90.32 17.94 92.08 17.94L92.08 17.94L92.08 17.94Q93.84 17.94 94.84 16.78L94.84 16.78L94.84 16.78Q95.84 15.62 95.84 13.60L95.84 13.60L95.84 13.60Q95.84 11.58 94.84 10.42L94.84 10.42L94.84 10.42Q93.84 9.26 92.08 9.26L92.08 9.26ZM104.96 8.40L104.96 8.40Q105.76 8.40 106.22 8.74L106.22 8.74L105.96 9.68L105.96 9.68Q105.50 9.32 104.68 9.32L104.68 9.32L104.68 9.32Q103.92 9.32 103.25 9.79L103.25 9.79L103.25 9.79Q102.58 10.26 102.17 11.11L102.17 11.11L102.17 11.11Q101.76 11.96 101.76 13L101.76 13L101.76 18.60L100.76 18.60L100.76 8.60L101.60 8.60L101.72 10.64L101.72 10.64Q102.14 9.58 102.97 8.99L102.97 8.99L102.97 8.99Q103.80 8.40 104.96 8.40L104.96 8.40ZM116.50 18.60L112.68 13.30L110.32 15.58L110.32 18.60L109.32 18.60L109.32 4.00L110.32 4.00L110.32 14.32L116.26 8.60L117.56 8.60L113.42 12.60L117.72 18.60L116.50 18.60ZM123.88 18.80L123.88 18.80Q122.36 18.80 121.24 18.20L121.24 18.20L121.24 18.20Q120.12 17.60 119.70 16.46L119.70 16.46L120.52 15.92L120.52 15.92Q120.82 16.92 121.74 17.42L121.74 17.42L121.74 17.42Q122.66 17.92 124.00 17.92L124.00 17.92L124.00 17.92Q125.36 17.92 126.13 17.40L126.13 17.40L126.13 17.40Q126.90 16.88 126.90 16.02L126.90 16.02L126.90 16.02Q126.90 15.28 126.24 14.84L126.24 14.84L126.24 14.84Q125.58 14.40 123.92 14.10L123.92 14.10L123.92 14.10Q121.82 13.72 120.96 13.08L120.96 13.08L120.96 13.08Q120.10 12.44 120.10 11.26L120.10 11.26L120.10 11.26Q120.10 10.48 120.58 9.82L120.58 9.82L120.58 9.82Q121.06 9.16 121.94 8.78L121.94 8.78L121.94 8.78Q122.82 8.40 123.94 8.40L123.94 8.40L123.94 8.40Q125.52 8.40 126.47 9.00L126.47 9.00L126.47 9.00Q127.42 9.60 127.78 10.84L127.78 10.84L126.92 11.34L126.92 11.34Q126.36 9.28 123.94 9.28L123.94 9.28L123.94 9.28Q123.14 9.28 122.49 9.54L122.49 9.54L122.49 9.54Q121.84 9.80 121.47 10.23L121.47 10.23L121.47 10.23Q121.10 10.66 121.10 11.16L121.10 11.16L121.10 11.16Q121.10 11.98 121.78 12.44L121.78 12.44L121.78 12.44Q122.46 12.90 124.18 13.20L124.18 13.20L124.18 13.20Q126.22 13.54 127.06 14.18L127.06 14.18L127.06 14.18Q127.90 14.82 127.90 15.98L127.90 15.98L127.90 15.98Q127.90 17.26 126.81 18.03L126.81 18.03L126.81 18.03Q125.72 18.80 123.88 18.80L123.88 18.80Z"></path><defs id="SvgjsDefs1052"></defs></svg></g></svg>